<svg xmlns="http://www.w3.org/2000/svg"  viewBox="0 0 128 128" width="64px" height="64px"><path d="M 64.003906 1.8652344 C 62.052656 1.8652344 60.099297 2.3092187 58.279297 3.1992188 L 19.279297 22.300781 C 14.859297 24.470781 12 29.060469 12 33.980469 L 12 61.310547 C 12 88.000547 31.460312 114.28023 59.320312 125.24023 C 60.830312 125.83023 62.41 126.13086 64 126.13086 C 65.58 126.13086 67.169687 125.83023 68.679688 125.24023 C 96.539687 114.28023 116 88.000547 116 61.310547 L 116 33.980469 C 116 29.050469 113.1407 24.470781 108.7207 22.300781 L 69.720703 3.1992188 C 67.905703 2.3092187 65.955156 1.8652344 64.003906 1.8652344 z M 64 7.8691406 C 65.05 7.8691406 66.100078 8.1098437 67.080078 8.5898438 L 106.08008 27.689453 C 108.46008 28.859453 110 31.320469 110 33.980469 L 110 61.310547 C 110 85.590547 92.100469 109.58039 66.480469 119.65039 C 64.880469 120.28039 63.109766 120.28039 61.509766 119.65039 C 35.899766 109.58039 18 85.590547 18 61.310547 L 18 33.980469 C 18 31.330469 19.539922 28.859453 21.919922 27.689453 L 60.919922 8.5898438 C 61.899922 8.1098438 62.95 7.8691406 64 7.8691406 z M 64 36 C 62.34 36 61 37.34 61 39 L 61 89 C 61 90.66 62.34 92 64 92 C 65.66 92 67 90.66 67 89 L 67 39 C 67 37.34 65.66 36 64 36 z"/></svg>